<svg xmlns="http://www.w3.org/2000/svg" xmlns:xlink="http://www.w3.org/1999/xlink" width="192" zoomAndPan="magnify" viewBox="0 0 144 143.999998" height="192" preserveAspectRatio="xMidYMid meet" version="1.0"><defs><filter x="0%" y="0%" width="100%" height="100%" id="989340dcd3"><feColorMatrix values="0 0 0 0 1 0 0 0 0 1 0 0 0 0 1 0 0 0 1 0" color-interpolation-filters="sRGB"/></filter><g/><mask id="b6fb9bd05a"><g filter="url(#989340dcd3)"><rect x="-14.4" width="172.8" fill="#000000" y="-14.4" height="172.799997" fill-opacity="0.38"/></g></mask><clipPath id="3b499207b5"><path d="M 0.296875 0.960938 L 139.613281 0.960938 L 139.613281 140.359375 L 0.296875 140.359375 Z M 0.296875 0.960938 " clip-rule="nonzero"/></clipPath><clipPath id="42f67a51d5"><rect x="0" width="140" y="0" height="142"/></clipPath></defs><rect x="-14.4" width="172.8" fill="none" y="-14.4" height="172.799997" />
<rect x="-14.4" width="172.8" fill="none" y="-14.4" height="172.799997" />
<g mask="url(#b6fb9bd05a)"><g transform="matrix(1, 0, 0, 1, 2, 1)"><g clip-path="url(#42f67a51d5)"><g clip-path="url(#3b499207b5)"><path fill="#f15227" d="M 108.457031 93.515625 C 109.0625 93.515625 109.554688 93.023438 109.554688 92.421875 C 109.554688 91.816406 109.0625 91.324219 108.457031 91.324219 C 107.851562 91.324219 107.359375 91.816406 107.359375 92.421875 C 107.359375 93.023438 107.851562 93.515625 108.457031 93.515625 Z M 115.292969 87.953125 C 115.898438 87.953125 116.390625 87.460938 116.390625 86.855469 C 116.390625 86.25 115.898438 85.761719 115.292969 85.761719 C 114.6875 85.761719 114.199219 86.25 114.199219 86.855469 C 114.199219 87.460938 114.6875 87.953125 115.292969 87.953125 Z M 114.742188 70.773438 C 114.136719 70.773438 113.644531 71.265625 113.644531 71.867188 C 113.644531 72.472656 114.136719 72.964844 114.742188 72.964844 C 115.347656 72.964844 115.839844 72.472656 115.839844 71.867188 C 115.839844 71.265625 115.347656 70.773438 114.742188 70.773438 Z M 109.554688 29.890625 C 110.160156 29.890625 110.648438 29.398438 110.648438 28.792969 C 110.648438 28.1875 110.160156 27.699219 109.554688 27.699219 C 108.949219 27.699219 108.457031 28.1875 108.457031 28.792969 C 108.457031 29.398438 108.949219 29.890625 109.554688 29.890625 Z M 111.808594 56.09375 C 111.199219 56.09375 110.710938 56.585938 110.710938 57.191406 C 110.710938 57.796875 111.199219 58.289062 111.808594 58.289062 C 112.410156 58.289062 112.902344 57.796875 112.902344 57.191406 C 112.902344 56.585938 112.410156 56.09375 111.808594 56.09375 Z M 119.4375 60.570312 C 118.832031 60.570312 118.34375 61.0625 118.34375 61.667969 C 118.34375 62.273438 118.832031 62.765625 119.4375 62.765625 C 120.042969 62.765625 120.535156 62.273438 120.535156 61.667969 C 120.535156 61.0625 120.042969 60.570312 119.4375 60.570312 Z M 111.351562 131.269531 C 111.152344 132.246094 110.542969 133.074219 109.546875 133.074219 C 108.550781 133.074219 107.746094 132.265625 107.746094 131.269531 C 107.746094 130.277344 108.550781 129.46875 109.546875 129.46875 C 109.546875 129.46875 107.234375 128.988281 106.984375 131.449219 C 106.835938 132.921875 108.609375 133.371094 109.558594 133.371094 C 110.503906 133.371094 113.859375 133.179688 113.128906 127.203125 C 112.234375 119.894531 104.828125 107.496094 70.097656 85.105469 C 72.332031 86.554688 114.789062 114.375 111.351562 131.269531 Z M 69.996094 123.402344 L 69.996094 125.832031 C 76.902344 125.832031 78.785156 109.515625 69.996094 85.039062 C 81.382812 124.03125 69.996094 123.402344 69.996094 123.402344 Z M 70.027344 85.058594 C 70.050781 85.074219 70.074219 85.089844 70.097656 85.105469 C 70.066406 85.085938 70.042969 85.066406 70.027344 85.058594 C 70.011719 85.046875 70.003906 85.042969 69.996094 85.039062 C 69.996094 85.039062 70.230469 85.234375 70.640625 85.585938 C 70.316406 85.296875 70.101562 85.113281 70.027344 85.058594 Z M 85.589844 108.511719 C 80.308594 113.679688 73.152344 95.105469 73.152344 95.105469 C 73.152344 95.105469 79.417969 115.664062 86.554688 110.554688 C 93.351562 105.695312 74.40625 88.835938 70.640625 85.585938 C 74.089844 88.675781 90.164062 104.03125 85.589844 108.511719 Z M 71.5625 1.984375 C 70.597656 1.277344 70.023438 0.960938 70.023438 0.960938 C 70.546875 1.296875 71.058594 1.636719 71.5625 1.984375 Z M 138.914062 43.234375 C 115.292969 45.132812 91.535156 57.773438 86.320312 60.695312 C 86.175781 61.949219 85.960938 63.144531 85.695312 64.292969 C 97.960938 58.867188 106.140625 58.863281 106.140625 58.863281 C 98.023438 60.460938 88.355469 65 85.046875 66.699219 C 84.34375 68.90625 83.4375 70.890625 82.421875 72.675781 C 104.433594 67.046875 116.390625 62.285156 116.390625 62.285156 C 106.320312 68.757812 83.007812 74.722656 80.519531 75.632812 C 79.234375 77.40625 77.871094 78.910156 76.566406 80.164062 C 99.960938 79.25 109.273438 76.042969 109.273438 76.042969 C 98.078125 82.636719 75.148438 82.484375 73.902344 82.472656 C 72.328125 83.695312 71.054688 84.46875 70.433594 84.816406 L 71.585938 84.289062 C 71.585938 84.289062 74.523438 83.453125 84.855469 83.632812 C 94.898438 83.804688 105.847656 81.507812 117.183594 76.230469 C 139.09375 66.039062 138.914062 43.234375 138.914062 43.234375 Z M 95.476562 41.511719 C 98.070312 37.441406 101.75 34.835938 101.75 34.835938 C 98.90625 37.683594 96.960938 41.476562 95.878906 44 C 96.421875 47.753906 96.550781 50.65625 96.574219 52.167969 C 100.15625 44.480469 107.359375 33.265625 107.359375 33.265625 C 104.757812 42.070312 101.414062 48.894531 99.824219 51.890625 C 101.277344 51.300781 102.835938 50.695312 104.5 50.09375 C 108.109375 44.300781 109.003906 38.332031 109.003906 38.332031 C 109.132812 43.453125 107.894531 47.242188 107.054688 49.203125 C 109.019531 48.539062 111.109375 47.878906 113.324219 47.25 L 113.089844 47.3125 C 120.191406 32.351562 114.292969 17.46875 114.292969 17.46875 C 103.503906 21.042969 95.9375 30.929688 93.75 34.066406 C 94.511719 36.714844 95.066406 39.226562 95.476562 41.511719 Z M 69.996094 85.019531 C 69.992188 85.015625 69.988281 85.015625 69.984375 85.011719 C 69.984375 85.015625 69.980469 85.015625 69.976562 85.019531 L 69.984375 85.023438 Z M 69.539062 84.816406 C 68.917969 84.46875 67.644531 83.695312 66.070312 82.472656 C 64.824219 82.484375 41.894531 82.636719 30.699219 76.042969 C 30.699219 76.042969 40.011719 79.25 63.40625 80.164062 C 62.101562 78.910156 60.738281 77.40625 59.453125 75.632812 C 56.964844 74.722656 33.652344 68.757812 23.582031 62.285156 C 23.582031 62.285156 35.539062 67.046875 57.550781 72.675781 C 56.535156 70.890625 55.628906 68.90625 54.925781 66.699219 C 51.617188 65 41.953125 60.460938 33.832031 58.863281 C 33.832031 58.863281 42.011719 58.867188 54.277344 64.292969 C 54.011719 63.144531 53.796875 61.949219 53.652344 60.695312 C 48.4375 57.773438 24.679688 45.132812 1.058594 43.234375 C 1.058594 43.234375 0.878906 66.039062 22.789062 76.230469 C 34.125 81.507812 45.074219 83.804688 55.113281 83.632812 C 65.449219 83.453125 68.386719 84.289062 68.386719 84.289062 Z M 26.882812 47.3125 L 26.648438 47.25 C 28.863281 47.878906 30.953125 48.539062 32.917969 49.203125 C 32.078125 47.242188 30.839844 43.453125 30.96875 38.332031 C 30.96875 38.332031 31.863281 44.300781 35.472656 50.09375 C 37.136719 50.695312 38.695312 51.300781 40.148438 51.890625 C 38.558594 48.894531 35.214844 42.070312 32.613281 33.265625 C 32.613281 33.265625 39.8125 44.480469 43.394531 52.167969 C 43.421875 50.65625 43.550781 47.753906 44.09375 44 C 43.011719 41.476562 41.066406 37.683594 38.222656 34.835938 C 38.222656 34.835938 41.902344 37.441406 44.496094 41.511719 C 44.902344 39.226562 45.460938 36.714844 46.222656 34.066406 C 44.035156 30.929688 36.46875 21.042969 25.679688 17.46875 C 25.679688 17.46875 19.78125 32.351562 26.882812 47.3125 Z M 105.140625 97.589844 C 83.175781 95.082031 82.550781 88.175781 69.996094 85.039062 C 80.058594 86.105469 84.722656 93.226562 105.550781 95.613281 C 124.5625 97.789062 136.445312 90.609375 136.445312 90.609375 C 132.683594 82.707031 122.609375 79.519531 118.886719 78.589844 C 111.550781 82.542969 103.558594 84.015625 96.011719 84.515625 C 98.621094 85.410156 103.320312 86.855469 107.867188 87.394531 C 107.867188 87.394531 97.316406 86.699219 91.609375 84.710938 C 88.457031 84.785156 85.425781 84.738281 82.605469 84.683594 C 83.890625 85.230469 86.296875 86.285156 88.015625 87.265625 C 90.464844 88.660156 97.367188 91.191406 101.734375 91.324219 C 102.195312 91.335938 92.367188 91.257812 86.554688 87.953125 C 83.003906 85.933594 80.484375 85.023438 79.058594 84.621094 C 75.527344 84.574219 72.445312 84.613281 70.035156 85.035156 C 70.03125 85.035156 70.023438 85.039062 70.023438 85.039062 C 70.023438 85.039062 70.03125 85.035156 70.03125 85.035156 C 70.027344 85.035156 70.023438 85.035156 70.019531 85.039062 C 70.019531 85.039062 70.023438 85.039062 70.023438 85.039062 C 70.023438 85.039062 70.019531 85.039062 70.019531 85.039062 C 70.019531 85.039062 70.019531 85.039062 70.015625 85.039062 L 70.023438 85.039062 L 69.949219 85.039062 L 69.957031 85.039062 C 69.957031 85.039062 69.953125 85.039062 69.953125 85.039062 C 69.953125 85.039062 69.949219 85.039062 69.949219 85.039062 C 69.949219 85.039062 69.953125 85.039062 69.953125 85.039062 C 69.949219 85.035156 69.945312 85.035156 69.9375 85.035156 C 69.941406 85.035156 69.949219 85.039062 69.949219 85.039062 C 69.949219 85.039062 69.941406 85.035156 69.9375 85.035156 C 67.527344 84.613281 64.445312 84.574219 60.914062 84.621094 C 59.488281 85.023438 56.964844 85.933594 53.417969 87.953125 C 47.605469 91.257812 37.777344 91.335938 38.238281 91.324219 C 42.605469 91.191406 49.507812 88.660156 51.957031 87.265625 C 53.675781 86.285156 56.082031 85.230469 57.367188 84.683594 C 54.546875 84.738281 51.515625 84.785156 48.363281 84.710938 C 42.65625 86.699219 32.105469 87.394531 32.105469 87.394531 C 36.652344 86.855469 41.347656 85.410156 43.960938 84.515625 C 36.414062 84.015625 28.421875 82.542969 21.085938 78.589844 C 17.363281 79.519531 7.289062 82.707031 3.527344 90.609375 C 3.527344 90.609375 15.410156 97.789062 34.421875 95.613281 C 55.25 93.226562 59.914062 86.105469 69.972656 85.039062 C 57.421875 88.175781 56.792969 95.082031 34.828125 97.589844 C 14.789062 99.882812 2.824219 90.6875 2.824219 90.6875 C 6.589844 80.648438 19.140625 77.511719 20.019531 77.996094 C 19.085938 77.457031 18.164062 76.878906 17.257812 76.253906 C -0.941406 63.703125 0.3125 42.367188 0.3125 42.367188 C 9.394531 43.207031 17.46875 44.78125 24.429688 46.640625 L 23.914062 46.496094 C 23.914062 46.496094 17.886719 32.953125 25.414062 16.632812 C 25.414062 16.632812 39.03125 21.199219 46.988281 31.570312 C 50.265625 21.570312 56.511719 10.148438 68.410156 1.984375 C 63.480469 5.589844 48.25 19.441406 45.808594 54.378906 C 49.738281 56.238281 52.332031 57.765625 53.460938 58.464844 C 53.433594 57.878906 53.417969 57.28125 53.417969 56.675781 C 53.417969 36.101562 64.300781 27.78125 69.949219 24.640625 C 69.949219 24.640625 55.40625 33.253906 55.40625 57.070312 C 55.40625 75.609375 67.648438 83.671875 69.660156 84.875 L 69.976562 85.019531 C 69.980469 85.015625 69.984375 85.015625 69.984375 85.011719 C 69.953125 84.988281 69.898438 84.945312 69.824219 84.886719 C 69.878906 84.929688 69.929688 84.96875 69.984375 85.011719 C 70.042969 84.96875 70.09375 84.929688 70.148438 84.886719 C 70.074219 84.945312 70.019531 84.988281 69.988281 85.011719 C 69.988281 85.015625 69.992188 85.015625 69.996094 85.019531 L 70.3125 84.875 C 72.324219 83.671875 84.566406 75.609375 84.566406 57.070312 C 84.566406 33.253906 70.023438 24.640625 70.023438 24.640625 C 75.671875 27.78125 86.554688 36.101562 86.554688 56.675781 C 86.554688 57.28125 86.539062 57.878906 86.511719 58.464844 C 87.640625 57.765625 90.234375 56.238281 94.164062 54.378906 C 91.722656 19.441406 76.492188 5.589844 71.5625 1.984375 C 83.460938 10.148438 89.707031 21.570312 92.984375 31.570312 C 100.941406 21.199219 114.554688 16.632812 114.554688 16.632812 C 122.085938 32.953125 116.058594 46.496094 116.058594 46.496094 L 115.542969 46.640625 C 122.503906 44.78125 130.578125 43.207031 139.660156 42.367188 C 139.660156 42.367188 140.914062 63.703125 122.714844 76.253906 C 121.808594 76.878906 120.886719 77.457031 119.953125 77.996094 C 120.832031 77.511719 133.382812 80.648438 137.148438 90.6875 C 137.148438 90.6875 125.183594 99.882812 105.140625 97.589844 Z M 70.757812 129.984375 C 70.757812 129.378906 70.265625 128.886719 69.660156 128.886719 C 69.054688 128.886719 68.5625 129.378906 68.5625 129.984375 C 68.5625 130.589844 69.054688 131.078125 69.660156 131.078125 C 70.265625 131.078125 70.757812 130.589844 70.757812 129.984375 Z M 110.648438 135.9375 C 110.042969 135.9375 109.554688 136.429688 109.554688 137.035156 C 109.554688 137.640625 110.042969 138.132812 110.648438 138.132812 C 111.253906 138.132812 111.746094 137.640625 111.746094 137.035156 C 111.746094 136.429688 111.253906 135.9375 110.648438 135.9375 Z M 30.960938 135.9375 C 30.355469 135.9375 29.863281 136.429688 29.863281 137.035156 C 29.863281 137.640625 30.355469 138.132812 30.960938 138.132812 C 31.566406 138.132812 32.058594 137.640625 32.058594 137.035156 C 32.058594 136.429688 31.566406 135.9375 30.960938 135.9375 Z M 31.515625 91.324219 C 30.910156 91.324219 30.417969 91.816406 30.417969 92.421875 C 30.417969 93.023438 30.910156 93.515625 31.515625 93.515625 C 32.121094 93.515625 32.613281 93.023438 32.613281 92.421875 C 32.613281 91.816406 32.121094 91.324219 31.515625 91.324219 Z M 24.679688 85.761719 C 24.074219 85.761719 23.582031 86.25 23.582031 86.855469 C 23.582031 87.460938 24.074219 87.953125 24.679688 87.953125 C 25.285156 87.953125 25.773438 87.460938 25.773438 86.855469 C 25.773438 86.25 25.285156 85.761719 24.679688 85.761719 Z M 25.230469 70.773438 C 24.625 70.773438 24.132812 71.265625 24.132812 71.867188 C 24.132812 72.472656 24.625 72.964844 25.230469 72.964844 C 25.835938 72.964844 26.328125 72.472656 26.328125 71.867188 C 26.328125 71.265625 25.835938 70.773438 25.230469 70.773438 Z M 30.417969 29.890625 C 31.023438 29.890625 31.515625 29.398438 31.515625 28.792969 C 31.515625 28.1875 31.023438 27.699219 30.417969 27.699219 C 29.8125 27.699219 29.324219 28.1875 29.324219 28.792969 C 29.324219 29.398438 29.8125 29.890625 30.417969 29.890625 Z M 68.886719 37.234375 C 68.886719 37.839844 69.378906 38.332031 69.984375 38.332031 C 70.589844 38.332031 71.082031 37.839844 71.082031 37.234375 C 71.082031 36.628906 70.589844 36.140625 69.984375 36.140625 C 69.378906 36.140625 68.886719 36.628906 68.886719 37.234375 Z M 79.3125 49.046875 C 79.3125 48.441406 78.820312 47.949219 78.214844 47.949219 C 77.609375 47.949219 77.121094 48.441406 77.121094 49.046875 C 77.121094 49.652344 77.609375 50.144531 78.214844 50.144531 C 78.820312 50.144531 79.3125 49.652344 79.3125 49.046875 Z M 59.558594 49.046875 C 59.558594 49.652344 60.050781 50.144531 60.65625 50.144531 C 61.261719 50.144531 61.753906 49.652344 61.753906 49.046875 C 61.753906 48.441406 61.261719 47.949219 60.65625 47.949219 C 60.050781 47.949219 59.558594 48.441406 59.558594 49.046875 Z M 28.082031 58.289062 C 28.6875 58.289062 29.179688 57.796875 29.179688 57.191406 C 29.179688 56.585938 28.6875 56.09375 28.082031 56.09375 C 27.476562 56.09375 26.984375 56.585938 26.984375 57.191406 C 26.984375 57.796875 27.476562 58.289062 28.082031 58.289062 Z M 20.535156 60.570312 C 19.929688 60.570312 19.4375 61.0625 19.4375 61.667969 C 19.4375 62.273438 19.929688 62.765625 20.535156 62.765625 C 21.136719 62.765625 21.628906 62.273438 21.628906 61.667969 C 21.628906 61.0625 21.136719 60.570312 20.535156 60.570312 Z M 69.660156 134.929688 C 70.953125 134.929688 72 136.292969 72 137.976562 C 72 139.660156 70.953125 141.027344 69.660156 141.027344 C 71.34375 141.027344 72.707031 139.660156 72.707031 137.976562 C 72.707031 136.292969 71.34375 134.929688 69.660156 134.929688 Z M 67.316406 137.976562 C 67.316406 136.292969 68.367188 134.929688 69.660156 134.929688 C 67.976562 134.929688 66.613281 136.292969 66.613281 137.976562 C 66.613281 139.660156 67.976562 141.027344 69.660156 141.027344 C 68.367188 141.027344 67.316406 139.660156 67.316406 137.976562 Z M 72.617188 13.503906 C 72.617188 15.632812 71.292969 17.355469 69.660156 17.355469 C 71.785156 17.355469 73.507812 15.632812 73.507812 13.503906 C 73.507812 11.378906 71.785156 9.65625 69.660156 9.65625 C 71.292969 9.65625 72.617188 11.378906 72.617188 13.503906 Z M 65.8125 13.503906 C 65.8125 15.632812 67.535156 17.355469 69.660156 17.355469 C 68.027344 17.355469 66.703125 15.632812 66.703125 13.503906 C 66.703125 11.378906 68.027344 9.65625 69.660156 9.65625 C 67.535156 9.65625 65.8125 11.378906 65.8125 13.503906 Z M 62.199219 76.386719 C 57.441406 68.996094 63.257812 63.859375 66.285156 64.472656 C 69.375 65.09375 69.949219 68.777344 69.949219 68.777344 C 69.949219 68.679688 69.9375 68.582031 69.933594 68.488281 L 70.023438 68.777344 L 70.339844 67.660156 C 70.765625 66.523438 71.710938 64.871094 73.6875 64.472656 C 76.714844 63.859375 82.53125 68.996094 77.773438 76.386719 C 74.691406 81.175781 71.035156 84.195312 70.148438 84.886719 C 80.394531 77.113281 81.339844 71.914062 80.824219 68.824219 C 80.722656 68.21875 80.570312 67.644531 80.375 67.113281 C 80.671875 64.785156 81.207031 58.554688 79.285156 53.054688 C 79.285156 53.054688 80 59.402344 78.671875 64.566406 C 77.820312 63.832031 76.738281 63.40625 75.449219 63.402344 C 73.480469 63.390625 71.757812 64.441406 70.804688 66.011719 C 70.804688 60.429688 70.023438 46.699219 70.023438 46.699219 C 69.035156 52.835938 69.167969 66.011719 69.167969 66.011719 L 69.171875 66.019531 C 68.222656 64.445312 66.496094 63.390625 64.523438 63.402344 C 63.203125 63.40625 62.101562 63.851562 61.242188 64.617188 C 59.894531 59.445312 60.613281 53.054688 60.613281 53.054688 C 58.652344 58.675781 59.25 65.070312 59.546875 67.269531 C 59.375 67.753906 59.238281 68.277344 59.148438 68.824219 C 58.628906 71.914062 59.578125 77.113281 69.824219 84.886719 C 68.9375 84.195312 65.277344 81.175781 62.199219 76.386719 Z M 69.875 85.105469 C 69.898438 85.089844 69.921875 85.074219 69.945312 85.058594 C 69.871094 85.113281 69.65625 85.296875 69.332031 85.585938 C 69.742188 85.234375 69.972656 85.039062 69.972656 85.039062 C 69.96875 85.042969 69.960938 85.046875 69.945312 85.058594 C 69.929688 85.066406 69.90625 85.085938 69.875 85.105469 Z M 26.84375 127.203125 C 26.113281 133.179688 29.46875 133.371094 30.414062 133.371094 C 31.363281 133.371094 33.136719 132.921875 32.988281 131.449219 C 32.738281 128.988281 30.421875 129.46875 30.421875 129.46875 C 31.421875 129.46875 32.226562 130.277344 32.226562 131.269531 C 32.226562 132.265625 31.421875 133.074219 30.421875 133.074219 C 29.425781 133.074219 28.820312 132.246094 28.621094 131.269531 C 25.183594 114.375 67.640625 86.554688 69.875 85.105469 C 35.144531 107.496094 27.738281 119.894531 26.84375 127.203125 Z M 69.972656 125.832031 L 69.972656 123.402344 C 69.972656 123.402344 58.589844 124.03125 69.972656 85.039062 C 61.1875 109.515625 63.070312 125.832031 69.972656 125.832031 Z M 53.417969 110.554688 C 60.554688 115.664062 66.820312 95.105469 66.820312 95.105469 C 66.820312 95.105469 59.664062 113.679688 54.382812 108.511719 C 49.808594 104.03125 65.882812 88.675781 69.332031 85.585938 C 65.5625 88.835938 46.621094 105.695312 53.417969 110.554688 Z M 69.949219 0.960938 C 69.425781 1.296875 68.914062 1.636719 68.410156 1.984375 C 69.375 1.277344 69.949219 0.960938 69.949219 0.960938 " fill-opacity="1" fill-rule="nonzero"/></g></g></g></g><g fill="#000000" fill-opacity="1"><g transform="translate(45.432644, 64.246062)"><g><path d="M 5.578125 -32.53125 L 5.578125 0 L 9.8125 0 L 9.8125 -14.359375 L 11.84375 -14.359375 C 12.71875 -14.359375 13.441406 -14.28125 14.015625 -14.125 C 14.585938 -13.96875 15.101562 -13.703125 15.5625 -13.328125 C 16.03125 -12.960938 16.460938 -12.484375 16.859375 -11.890625 C 17.265625 -11.304688 17.75 -10.582031 18.3125 -9.71875 L 21.984375 -4.28125 C 22.441406 -3.5625 22.894531 -2.90625 23.34375 -2.3125 C 23.800781 -1.726562 24.289062 -1.226562 24.8125 -0.8125 C 25.34375 -0.394531 25.941406 -0.0625 26.609375 0.1875 C 27.273438 0.4375 28.070312 0.5625 29 0.5625 C 29.675781 0.5625 30.226562 0.53125 30.65625 0.46875 C 31.09375 0.40625 31.53125 0.25 31.96875 0 L 31.96875 -1.71875 C 31.8125 -1.6875 31.65625 -1.660156 31.5 -1.640625 C 31.351562 -1.628906 31.203125 -1.625 31.046875 -1.625 C 30.390625 -1.625 29.8125 -1.71875 29.3125 -1.90625 C 28.820312 -2.09375 28.359375 -2.363281 27.921875 -2.71875 C 27.492188 -3.070312 27.078125 -3.503906 26.671875 -4.015625 C 26.265625 -4.523438 25.847656 -5.109375 25.421875 -5.765625 C 24.117188 -7.648438 23.109375 -9.15625 22.390625 -10.28125 C 21.679688 -11.414062 21.117188 -12.289062 20.703125 -12.90625 C 20.285156 -13.53125 19.941406 -13.984375 19.671875 -14.265625 C 19.410156 -14.546875 19.097656 -14.78125 18.734375 -14.96875 L 18.265625 -15.1875 L 18.265625 -15.375 C 19.753906 -15.46875 21.03125 -15.789062 22.09375 -16.34375 C 23.164062 -16.90625 24.039062 -17.601562 24.71875 -18.4375 C 25.40625 -19.28125 25.898438 -20.1875 26.203125 -21.15625 C 26.515625 -22.132812 26.671875 -23.09375 26.671875 -24.03125 C 26.671875 -24.863281 26.507812 -25.773438 26.1875 -26.765625 C 25.863281 -27.753906 25.304688 -28.675781 24.515625 -29.53125 C 23.722656 -30.382812 22.644531 -31.097656 21.28125 -31.671875 C 19.914062 -32.242188 18.195312 -32.53125 16.125 -32.53125 Z M 9.8125 -30.484375 L 14.5 -30.484375 C 15.675781 -30.484375 16.734375 -30.3125 17.671875 -29.96875 C 18.617188 -29.632812 19.429688 -29.164062 20.109375 -28.5625 C 20.796875 -27.957031 21.316406 -27.234375 21.671875 -26.390625 C 22.035156 -25.554688 22.21875 -24.644531 22.21875 -23.65625 C 22.21875 -22.8125 22.050781 -21.960938 21.71875 -21.109375 C 21.394531 -20.265625 20.90625 -19.492188 20.25 -18.796875 C 19.601562 -18.097656 18.804688 -17.53125 17.859375 -17.09375 C 16.921875 -16.664062 15.832031 -16.453125 14.59375 -16.453125 L 9.8125 -16.453125 Z M 9.8125 -30.484375 "/></g></g></g><g fill="#000000" fill-opacity="1"><g transform="translate(69.575834, 80.771925)"><g><path d="M 5.578125 0 L 17.234375 0 C 19.316406 0 21.066406 -0.269531 22.484375 -0.8125 C 23.910156 -1.351562 25.054688 -2.054688 25.921875 -2.921875 C 26.796875 -3.796875 27.425781 -4.78125 27.8125 -5.875 C 28.195312 -6.976562 28.390625 -8.085938 28.390625 -9.203125 C 28.390625 -10.960938 28.007812 -12.367188 27.25 -13.421875 C 26.488281 -14.484375 25.582031 -15.289062 24.53125 -15.84375 C 23.476562 -16.40625 22.394531 -16.773438 21.28125 -16.953125 C 20.164062 -17.140625 19.269531 -17.25 18.59375 -17.28125 L 18.59375 -17.46875 C 19.675781 -17.46875 20.695312 -17.675781 21.65625 -18.09375 C 22.613281 -18.519531 23.457031 -19.0625 24.1875 -19.71875 C 24.914062 -20.382812 25.492188 -21.160156 25.921875 -22.046875 C 26.359375 -22.929688 26.578125 -23.867188 26.578125 -24.859375 C 26.578125 -25.722656 26.390625 -26.601562 26.015625 -27.5 C 25.648438 -28.40625 25.085938 -29.226562 24.328125 -29.96875 C 23.566406 -30.71875 22.585938 -31.332031 21.390625 -31.8125 C 20.203125 -32.289062 18.800781 -32.53125 17.1875 -32.53125 L 5.578125 -32.53125 Z M 9.8125 -2.046875 L 9.8125 -16.265625 L 14.921875 -16.265625 C 16.429688 -16.265625 17.742188 -16.0625 18.859375 -15.65625 C 19.984375 -15.257812 20.90625 -14.71875 21.625 -14.03125 C 22.351562 -13.351562 22.894531 -12.5625 23.25 -11.65625 C 23.613281 -10.757812 23.796875 -9.816406 23.796875 -8.828125 C 23.796875 -7.742188 23.597656 -6.78125 23.203125 -5.9375 C 22.816406 -5.101562 22.296875 -4.390625 21.640625 -3.796875 C 20.992188 -3.210938 20.226562 -2.773438 19.34375 -2.484375 C 18.46875 -2.191406 17.535156 -2.046875 16.546875 -2.046875 Z M 9.8125 -18.3125 L 9.8125 -30.484375 L 15.46875 -30.484375 C 16.675781 -30.484375 17.707031 -30.3125 18.5625 -29.96875 C 19.414062 -29.632812 20.113281 -29.1875 20.65625 -28.625 C 21.195312 -28.0625 21.59375 -27.425781 21.84375 -26.71875 C 22.09375 -26.007812 22.21875 -25.296875 22.21875 -24.578125 C 22.21875 -23.679688 22.035156 -22.84375 21.671875 -22.0625 C 21.316406 -21.289062 20.820312 -20.625 20.1875 -20.0625 C 19.550781 -19.507812 18.820312 -19.078125 18 -18.765625 C 17.1875 -18.460938 16.3125 -18.3125 15.375 -18.3125 Z M 9.8125 -18.3125 "/></g></g></g><g fill="#000000" fill-opacity="1"><g transform="translate(40.433437, 101.982844)"><g><path d="M 12.265625 -7.917969 C 13.238281 -9.5625 12.875 -10.460938 12.402344 -10.925781 C 10.863281 -12.433594 5.78125 -11.441406 2.695312 -9.550781 C 0.691406 -8.332031 -0.1875 -6.9375 0.21875 -5.636719 C 0.257812 -5.492188 0.414062 -5.410156 0.558594 -5.453125 C 0.703125 -5.503906 0.773438 -5.648438 0.734375 -5.792969 C 0.300781 -7.207031 1.953125 -8.46875 2.972656 -9.097656 C 6.132812 -11.019531 10.78125 -11.761719 12.019531 -10.53125 C 12.515625 -10.058594 12.433594 -9.273438 11.800781 -8.1875 C 10.5 -5.980469 7.414062 -4.636719 5.515625 -4.347656 C 5.492188 -4.347656 5.453125 -4.386719 5.460938 -4.429688 C 5.472656 -4.472656 5.472656 -4.472656 5.484375 -4.503906 C 5.8125 -6.214844 6.246094 -8.355469 6.878906 -8.507812 C 7.023438 -8.539062 7.105469 -8.683594 7.074219 -8.828125 C 7.03125 -8.972656 6.886719 -9.066406 6.742188 -9.035156 C 5.78125 -8.796875 5.402344 -6.886719 4.957031 -4.65625 C 4.945312 -4.605469 4.894531 -4.574219 4.851562 -4.636719 C 4.503906 -5.171875 4.242188 -5.453125 3.945312 -5.410156 C 3.625 -5.359375 3.53125 -4.996094 3.5 -4.875 C 3.367188 -4.472656 3.582031 -4.027344 3.996094 -3.882812 C 4.222656 -3.800781 4.460938 -3.757812 4.707031 -3.75 C 4.730469 -3.75 4.769531 -3.75 4.761719 -3.6875 C 4.449219 -2.210938 4.070312 -0.734375 3.550781 -0.597656 C 3.460938 -0.578125 3.375 -0.507812 3.355469 -0.414062 C 3.324219 -0.308594 3.355469 -0.21875 3.417969 -0.144531 C 3.488281 -0.0742188 3.59375 -0.0507812 3.6875 -0.0742188 C 4.417969 -0.269531 4.8125 -1.425781 5.152344 -2.941406 C 5.164062 -2.972656 5.171875 -2.984375 5.203125 -2.996094 C 5.226562 -2.996094 5.246094 -2.984375 5.253906 -2.964844 C 6.175781 -1.527344 7.433594 0.125 9.136719 0.125 C 9.210938 0.125 9.28125 0.125 9.367188 0.113281 C 11.121094 -0.0429688 11.679688 -1.898438 11.710938 -1.972656 C 11.75 -2.117188 11.667969 -2.273438 11.523438 -2.3125 C 11.378906 -2.355469 11.222656 -2.273438 11.183594 -2.128906 C 11.183594 -2.117188 10.707031 -0.546875 9.3125 -0.421875 C 9.25 -0.421875 9.199219 -0.421875 9.136719 -0.421875 C 7.609375 -0.421875 6.402344 -2.148438 5.535156 -3.542969 C 5.503906 -3.59375 5.503906 -3.65625 5.523438 -3.71875 C 5.554688 -3.769531 5.605469 -3.808594 5.667969 -3.820312 C 7.773438 -4.140625 10.902344 -5.585938 12.265625 -7.917969 Z M 4.203125 -4.386719 C 3.996094 -4.472656 3.964844 -4.59375 4.015625 -4.738281 C 4.046875 -4.8125 4.070312 -4.792969 4.089844 -4.78125 C 4.183594 -4.65625 4.273438 -4.53125 4.359375 -4.410156 C 4.398438 -4.347656 4.347656 -4.335938 4.328125 -4.347656 C 4.285156 -4.359375 4.242188 -4.367188 4.203125 -4.386719 Z M 4.203125 -4.386719 "/></g></g></g><g fill="#000000" fill-opacity="1"><g transform="translate(52.710903, 101.982844)"><g><path d="M 8.664062 -2.652344 C 8.613281 -2.707031 8.550781 -2.746094 8.476562 -2.746094 C 8.40625 -2.757812 8.332031 -2.738281 8.28125 -2.695312 C 8.238281 -2.664062 4.265625 0.496094 0.949219 -0.867188 C 0.277344 -1.144531 0.246094 -1.507812 0.269531 -1.703125 C 0.269531 -1.734375 0.277344 -1.765625 0.308594 -1.785156 C 0.332031 -1.808594 0.371094 -1.808594 0.402344 -1.796875 C 1.074219 -1.753906 1.746094 -1.929688 2.324219 -2.292969 C 2.820312 -2.613281 2.902344 -2.964844 2.871094 -3.191406 C 2.851562 -3.5625 2.550781 -3.863281 2.167969 -3.871094 C 1.351562 -3.914062 -0.0117188 -2.941406 -0.238281 -1.910156 C -0.332031 -1.527344 -0.320312 -0.804688 0.742188 -0.371094 C 1.394531 -0.101562 2.074219 0.0195312 2.765625 0.0195312 C 5.730469 0.0195312 8.476562 -2.15625 8.621094 -2.273438 C 8.671875 -2.3125 8.714844 -2.386719 8.714844 -2.445312 C 8.726562 -2.519531 8.703125 -2.589844 8.664062 -2.652344 Z M 0.640625 -2.425781 C 1.042969 -2.984375 1.714844 -3.355469 2.136719 -3.324219 C 2.25 -3.324219 2.3125 -3.285156 2.332031 -3.128906 C 2.34375 -3.027344 2.230469 -2.882812 2.023438 -2.746094 C 1.601562 -2.46875 0.332031 -2.011719 0.640625 -2.425781 Z M 0.640625 -2.425781 "/></g></g></g><g fill="#000000" fill-opacity="1"><g transform="translate(60.981925, 101.982844)"><g><path d="M 9.769531 -2.363281 C 9.714844 -2.417969 9.65625 -2.4375 9.582031 -2.445312 C 9.511719 -2.445312 9.4375 -2.417969 9.386719 -2.363281 C 7.828125 -0.835938 5.554688 -0.308594 4.605469 -0.609375 C 3.800781 -0.867188 3.429688 -1.601562 3.261719 -2.375 C 3.230469 -2.550781 3.261719 -2.714844 3.355469 -2.859375 C 4.59375 -4.964844 5.90625 -8.003906 5.453125 -8.734375 C 5.347656 -8.902344 5.164062 -8.984375 4.964844 -8.953125 C 3.820312 -8.808594 2.839844 -6.433594 2.644531 -4.316406 C 2.601562 -3.863281 2.601562 -3.417969 2.632812 -2.972656 C 2.644531 -2.828125 2.613281 -2.683594 2.53125 -2.5625 C 2.46875 -2.457031 2.394531 -2.34375 2.324219 -2.242188 C 1.414062 -0.898438 0.796875 -0.464844 0.535156 -0.496094 C 0.402344 -0.507812 0.289062 -0.597656 0.257812 -0.722656 C 0.15625 -1.25 0.277344 -1.785156 0.578125 -2.21875 C 0.796875 -2.476562 1.113281 -2.765625 1.425781 -2.707031 C 1.601562 -2.652344 1.746094 -2.519531 1.816406 -2.355469 C 1.847656 -2.210938 1.984375 -2.105469 2.128906 -2.128906 C 2.273438 -2.148438 2.375 -2.28125 2.355469 -2.4375 C 2.25 -2.808594 1.972656 -3.097656 1.601562 -3.210938 C 1.28125 -3.316406 0.765625 -3.273438 0.164062 -2.570312 C -0.164062 -2.1875 -0.496094 -1.175781 -0.246094 -0.527344 C -0.144531 -0.21875 0.132812 0 0.453125 0.0429688 C 0.484375 0.0429688 0.527344 0.0429688 0.558594 0.0429688 C 1.105469 0.0429688 1.796875 -0.546875 2.613281 -1.714844 C 2.644531 -1.753906 2.707031 -1.785156 2.765625 -1.777344 C 2.828125 -1.777344 2.882812 -1.734375 2.902344 -1.683594 C 3.128906 -0.929688 3.707031 -0.339844 4.441406 -0.09375 C 5.660156 0.289062 8.136719 -0.390625 9.769531 -1.984375 C 9.871094 -2.085938 9.871094 -2.25 9.769531 -2.363281 Z M 3.191406 -4.265625 C 3.355469 -6.152344 4.109375 -7.816406 4.75 -8.292969 C 4.800781 -8.324219 4.875 -8.332031 4.9375 -8.292969 C 4.988281 -8.261719 5.019531 -8.199219 5.019531 -8.136719 C 4.925781 -7.351562 4.367188 -5.9375 3.335938 -4.097656 C 3.171875 -3.832031 3.171875 -4.078125 3.191406 -4.265625 Z M 3.191406 -4.265625 "/></g></g></g><g fill="#000000" fill-opacity="1"><g transform="translate(70.378472, 101.982844)"><g/></g></g><g fill="#000000" fill-opacity="1"><g transform="translate(74.219702, 101.982844)"><g><path d="M 11.535156 -11.988281 C 9.769531 -13.277344 6.257812 -13.101562 4.398438 -12.496094 C 1.519531 -11.535156 0.0742188 -9.921875 -0.0507812 -8.828125 C -0.125 -8.457031 0.0507812 -8.074219 0.371094 -7.859375 C 1.042969 -7.457031 2.300781 -7.796875 3.839844 -8.808594 C 3.964844 -8.890625 3.996094 -9.066406 3.914062 -9.191406 C 3.832031 -9.3125 3.664062 -9.34375 3.542969 -9.261719 C 1.972656 -8.230469 1 -8.105469 0.652344 -8.324219 C 0.515625 -8.425781 0.445312 -8.601562 0.484375 -8.765625 C 0.566406 -9.511719 1.753906 -11.039062 4.5625 -11.976562 C 6.269531 -12.546875 9.613281 -12.710938 11.214844 -11.554688 C 11.800781 -11.152344 12.144531 -10.480469 12.121094 -9.777344 C 12.144531 -8.960938 11.792969 -8.179688 11.164062 -7.652344 C 9.820312 -6.484375 7.339844 -6.238281 5.460938 -6.238281 C 5.347656 -6.238281 5.253906 -6.289062 5.183594 -6.382812 C 5.121094 -6.464844 5.101562 -6.578125 5.132812 -6.679688 C 5.628906 -8.332031 6.019531 -9.746094 6.050781 -9.871094 C 6.082031 -9.964844 6.0625 -10.066406 5.988281 -10.140625 C 5.917969 -10.210938 5.8125 -10.242188 5.71875 -10.210938 C 5.628906 -10.191406 5.554688 -10.109375 5.535156 -10.015625 C 5.523438 -9.984375 5.070312 -8.355469 4.523438 -6.527344 C 4.480469 -6.371094 4.335938 -6.269531 4.171875 -6.277344 C 3.449219 -6.320312 2.972656 -6.382812 2.964844 -6.382812 C 2.808594 -6.402344 2.675781 -6.296875 2.652344 -6.152344 C 2.632812 -6 2.738281 -5.863281 2.882812 -5.84375 C 2.902344 -5.84375 3.285156 -5.792969 3.871094 -5.679688 C 3.964844 -5.660156 4.046875 -5.597656 4.097656 -5.515625 C 4.152344 -5.429688 4.160156 -5.339844 4.140625 -5.246094 C 3.800781 -4.078125 3.40625 -2.933594 2.933594 -1.808594 C 2.871094 -1.671875 2.921875 -1.519531 3.054688 -1.445312 C 3.191406 -1.382812 3.355469 -1.433594 3.429688 -1.570312 C 3.914062 -2.746094 4.335938 -3.953125 4.6875 -5.183594 C 4.738281 -5.347656 4.914062 -5.453125 5.089844 -5.410156 C 6.867188 -4.988281 9.191406 -4.234375 9.902344 -3.109375 C 10.109375 -2.808594 10.160156 -2.4375 10.046875 -2.097656 C 9.261719 0.402344 3.179688 -0.855469 0.910156 -1.550781 C 0.765625 -1.589844 0.621094 -1.507812 0.578125 -1.363281 C 0.527344 -1.21875 0.609375 -1.074219 0.753906 -1.03125 C 0.960938 -0.960938 3.964844 -0.0625 6.617188 -0.0625 C 8.445312 -0.0625 10.109375 -0.496094 10.5625 -1.929688 C 10.726562 -2.417969 10.65625 -2.964844 10.367188 -3.398438 C 9.851562 -4.203125 8.683594 -4.832031 7.414062 -5.285156 C 7.300781 -5.328125 7.226562 -5.441406 7.25 -5.566406 C 7.257812 -5.691406 7.351562 -5.78125 7.476562 -5.792969 C 8.972656 -5.957031 10.511719 -6.371094 11.511719 -7.238281 C 12.257812 -7.867188 12.679688 -8.796875 12.667969 -9.777344 C 12.691406 -10.65625 12.265625 -11.492188 11.535156 -11.988281 Z M 11.535156 -11.988281 "/></g></g></g><g fill="#000000" fill-opacity="1"><g transform="translate(85.629791, 101.982844)"><g><path d="M 8.953125 -2.902344 C 8.902344 -2.953125 8.828125 -2.972656 8.757812 -2.972656 C 8.683594 -2.972656 8.621094 -2.941406 8.570312 -2.890625 C 7.640625 -1.910156 5.554688 -0.476562 4.027344 -0.476562 L 4.007812 -0.476562 C 3.582031 -0.453125 3.179688 -0.621094 2.890625 -0.917969 C 2.519531 -1.320312 2.777344 -2.417969 2.902344 -2.765625 C 2.953125 -2.902344 2.890625 -3.046875 2.765625 -3.097656 C 2.652344 -3.160156 2.5 -3.128906 2.425781 -3.015625 C 1.632812 -1.859375 0.496094 -0.734375 0.125 -0.949219 C 0 -1.03125 0.1875 -1.828125 0.691406 -2.726562 C 0.753906 -2.851562 0.710938 -3.003906 0.589844 -3.078125 C 0.464844 -3.148438 0.300781 -3.117188 0.226562 -2.996094 C -0.125 -2.386719 -0.855469 -0.910156 -0.15625 -0.484375 C 0.402344 -0.15625 1.15625 -0.691406 1.785156 -1.34375 C 1.847656 -1.414062 1.941406 -1.433594 2.023438 -1.40625 C 2.105469 -1.382812 2.167969 -1.3125 2.1875 -1.21875 C 2.21875 -0.96875 2.324219 -0.742188 2.488281 -0.546875 C 2.882812 -0.132812 3.429688 0.09375 3.996094 0.0742188 L 4.027344 0.0742188 C 5.730469 0.0742188 7.941406 -1.433594 8.960938 -2.507812 C 9.015625 -2.570312 9.035156 -2.632812 9.035156 -2.707031 C 9.035156 -2.777344 9.003906 -2.851562 8.953125 -2.902344 Z M 8.953125 -2.902344 "/></g></g></g><g fill="#000000" fill-opacity="1"><g transform="translate(94.169294, 101.982844)"><g><path d="M 9.769531 -2.363281 C 9.714844 -2.417969 9.65625 -2.4375 9.582031 -2.445312 C 9.511719 -2.445312 9.4375 -2.417969 9.386719 -2.363281 C 7.828125 -0.835938 5.554688 -0.308594 4.605469 -0.609375 C 3.800781 -0.867188 3.429688 -1.601562 3.261719 -2.375 C 3.230469 -2.550781 3.261719 -2.714844 3.355469 -2.859375 C 4.59375 -4.964844 5.90625 -8.003906 5.453125 -8.734375 C 5.347656 -8.902344 5.164062 -8.984375 4.964844 -8.953125 C 3.820312 -8.808594 2.839844 -6.433594 2.644531 -4.316406 C 2.601562 -3.863281 2.601562 -3.417969 2.632812 -2.972656 C 2.644531 -2.828125 2.613281 -2.683594 2.53125 -2.5625 C 2.46875 -2.457031 2.394531 -2.34375 2.324219 -2.242188 C 1.414062 -0.898438 0.796875 -0.464844 0.535156 -0.496094 C 0.402344 -0.507812 0.289062 -0.597656 0.257812 -0.722656 C 0.15625 -1.25 0.277344 -1.785156 0.578125 -2.21875 C 0.796875 -2.476562 1.113281 -2.765625 1.425781 -2.707031 C 1.601562 -2.652344 1.746094 -2.519531 1.816406 -2.355469 C 1.847656 -2.210938 1.984375 -2.105469 2.128906 -2.128906 C 2.273438 -2.148438 2.375 -2.28125 2.355469 -2.4375 C 2.25 -2.808594 1.972656 -3.097656 1.601562 -3.210938 C 1.28125 -3.316406 0.765625 -3.273438 0.164062 -2.570312 C -0.164062 -2.1875 -0.496094 -1.175781 -0.246094 -0.527344 C -0.144531 -0.21875 0.132812 0 0.453125 0.0429688 C 0.484375 0.0429688 0.527344 0.0429688 0.558594 0.0429688 C 1.105469 0.0429688 1.796875 -0.546875 2.613281 -1.714844 C 2.644531 -1.753906 2.707031 -1.785156 2.765625 -1.777344 C 2.828125 -1.777344 2.882812 -1.734375 2.902344 -1.683594 C 3.128906 -0.929688 3.707031 -0.339844 4.441406 -0.09375 C 5.660156 0.289062 8.136719 -0.390625 9.769531 -1.984375 C 9.871094 -2.085938 9.871094 -2.25 9.769531 -2.363281 Z M 3.191406 -4.265625 C 3.355469 -6.152344 4.109375 -7.816406 4.75 -8.292969 C 4.800781 -8.324219 4.875 -8.332031 4.9375 -8.292969 C 4.988281 -8.261719 5.019531 -8.199219 5.019531 -8.136719 C 4.925781 -7.351562 4.367188 -5.9375 3.335938 -4.097656 C 3.171875 -3.832031 3.171875 -4.078125 3.191406 -4.265625 Z M 3.191406 -4.265625 "/></g></g></g><g fill="#000000" fill-opacity="1"><g transform="translate(26.809951, 112.222584)"><g><path d="M 5.59375 -1 C 5.0625 -0.5 4.4375 -0.25 3.71875 -0.25 C 3.3125 -0.25 2.953125 -0.316406 2.640625 -0.453125 C 2.328125 -0.597656 2.066406 -0.785156 1.859375 -1.015625 C 1.660156 -1.253906 1.503906 -1.523438 1.390625 -1.828125 C 1.285156 -2.128906 1.234375 -2.445312 1.234375 -2.78125 C 1.234375 -3.132812 1.289062 -3.457031 1.40625 -3.75 C 1.519531 -4.039062 1.675781 -4.289062 1.875 -4.5 C 2.070312 -4.71875 2.304688 -4.882812 2.578125 -5 C 2.859375 -5.113281 3.164062 -5.171875 3.5 -5.171875 C 3.71875 -5.171875 3.914062 -5.144531 4.09375 -5.09375 C 4.28125 -5.039062 4.445312 -4.972656 4.59375 -4.890625 C 4.738281 -4.816406 4.851562 -4.722656 4.9375 -4.609375 C 5.03125 -4.503906 5.09375 -4.398438 5.125 -4.296875 L 5.703125 -4.296875 C 5.628906 -4.472656 5.53125 -4.632812 5.40625 -4.78125 C 5.28125 -4.925781 5.128906 -5.050781 4.953125 -5.15625 C 4.773438 -5.269531 4.5625 -5.359375 4.3125 -5.421875 C 4.070312 -5.484375 3.796875 -5.515625 3.484375 -5.515625 C 3.035156 -5.515625 2.625 -5.445312 2.25 -5.3125 C 1.882812 -5.1875 1.570312 -5.003906 1.3125 -4.765625 C 1.050781 -4.523438 0.847656 -4.234375 0.703125 -3.890625 C 0.554688 -3.554688 0.484375 -3.179688 0.484375 -2.765625 C 0.484375 -2.398438 0.539062 -2.046875 0.65625 -1.703125 C 0.769531 -1.359375 0.945312 -1.050781 1.1875 -0.78125 C 1.4375 -0.519531 1.75 -0.304688 2.125 -0.140625 C 2.5 0.015625 2.945312 0.09375 3.46875 0.09375 C 3.800781 0.09375 4.097656 0.0625 4.359375 0 C 4.617188 -0.0625 4.84375 -0.132812 5.03125 -0.21875 C 5.226562 -0.3125 5.390625 -0.410156 5.515625 -0.515625 C 5.648438 -0.617188 5.75 -0.710938 5.8125 -0.796875 Z M 5.59375 -1 "/></g></g></g><g fill="#000000" fill-opacity="1"><g transform="translate(32.858334, 112.222584)"><g><path d="M 0.625 -3.875 L 0.625 0 L 2.375 0 C 2.625 0 2.835938 -0.0234375 3.015625 -0.078125 C 3.203125 -0.140625 3.351562 -0.21875 3.46875 -0.3125 C 3.582031 -0.414062 3.664062 -0.523438 3.71875 -0.640625 C 3.769531 -0.765625 3.796875 -0.890625 3.796875 -1.015625 C 3.796875 -1.210938 3.753906 -1.375 3.671875 -1.5 C 3.597656 -1.632812 3.5 -1.738281 3.375 -1.8125 C 3.257812 -1.894531 3.132812 -1.945312 3 -1.96875 C 2.875 -2 2.757812 -2.019531 2.65625 -2.03125 L 2.65625 -2.078125 C 2.757812 -2.097656 2.859375 -2.128906 2.953125 -2.171875 C 3.054688 -2.222656 3.148438 -2.285156 3.234375 -2.359375 C 3.316406 -2.429688 3.378906 -2.519531 3.421875 -2.625 C 3.472656 -2.726562 3.5 -2.84375 3.5 -2.96875 C 3.5 -3.039062 3.484375 -3.128906 3.453125 -3.234375 C 3.429688 -3.335938 3.375 -3.4375 3.28125 -3.53125 C 3.195312 -3.625 3.070312 -3.703125 2.90625 -3.765625 C 2.738281 -3.835938 2.515625 -3.875 2.234375 -3.875 Z M 1.28125 -0.3125 L 1.28125 -1.859375 L 1.953125 -1.859375 C 2.035156 -1.859375 2.140625 -1.851562 2.265625 -1.84375 C 2.398438 -1.832031 2.523438 -1.800781 2.640625 -1.75 C 2.765625 -1.695312 2.867188 -1.613281 2.953125 -1.5 C 3.035156 -1.394531 3.078125 -1.242188 3.078125 -1.046875 C 3.078125 -0.867188 3.035156 -0.726562 2.953125 -0.625 C 2.867188 -0.519531 2.769531 -0.441406 2.65625 -0.390625 C 2.550781 -0.347656 2.441406 -0.320312 2.328125 -0.3125 C 2.210938 -0.3125 2.128906 -0.3125 2.078125 -0.3125 Z M 1.28125 -2.109375 L 1.28125 -3.5625 L 2.046875 -3.5625 C 2.222656 -3.5625 2.363281 -3.535156 2.46875 -3.484375 C 2.570312 -3.429688 2.648438 -3.367188 2.703125 -3.296875 C 2.765625 -3.222656 2.804688 -3.144531 2.828125 -3.0625 C 2.847656 -2.988281 2.859375 -2.921875 2.859375 -2.859375 C 2.859375 -2.742188 2.832031 -2.640625 2.78125 -2.546875 C 2.726562 -2.453125 2.660156 -2.375 2.578125 -2.3125 C 2.492188 -2.25 2.394531 -2.195312 2.28125 -2.15625 C 2.175781 -2.125 2.066406 -2.109375 1.953125 -2.109375 Z M 1.28125 -2.109375 "/></g></g></g><g fill="#000000" fill-opacity="1"><g transform="translate(37.032569, 112.222584)"><g><path d="M 4.0625 -1.765625 L 4.0625 -1.9375 C 4.0625 -2.28125 4.007812 -2.578125 3.90625 -2.828125 C 3.8125 -3.078125 3.679688 -3.285156 3.515625 -3.453125 C 3.347656 -3.617188 3.148438 -3.742188 2.921875 -3.828125 C 2.703125 -3.910156 2.46875 -3.953125 2.21875 -3.953125 C 1.957031 -3.953125 1.710938 -3.90625 1.484375 -3.8125 C 1.265625 -3.726562 1.070312 -3.597656 0.90625 -3.421875 C 0.75 -3.242188 0.625 -3.03125 0.53125 -2.78125 C 0.4375 -2.539062 0.390625 -2.265625 0.390625 -1.953125 C 0.390625 -1.703125 0.425781 -1.453125 0.5 -1.203125 C 0.582031 -0.960938 0.703125 -0.742188 0.859375 -0.546875 C 1.023438 -0.347656 1.234375 -0.191406 1.484375 -0.078125 C 1.742188 0.0351562 2.039062 0.09375 2.375 0.09375 C 2.707031 0.09375 3.015625 0.0351562 3.296875 -0.078125 C 3.578125 -0.191406 3.816406 -0.359375 4.015625 -0.578125 L 3.78125 -0.828125 C 3.664062 -0.734375 3.5625 -0.644531 3.46875 -0.5625 C 3.375 -0.488281 3.273438 -0.425781 3.171875 -0.375 C 3.078125 -0.320312 2.976562 -0.28125 2.875 -0.25 C 2.769531 -0.226562 2.648438 -0.21875 2.515625 -0.21875 C 2.367188 -0.21875 2.210938 -0.238281 2.046875 -0.28125 C 1.890625 -0.320312 1.738281 -0.398438 1.59375 -0.515625 C 1.457031 -0.628906 1.34375 -0.785156 1.25 -0.984375 C 1.15625 -1.191406 1.109375 -1.453125 1.109375 -1.765625 Z M 1.109375 -2.078125 C 1.109375 -2.285156 1.128906 -2.484375 1.171875 -2.671875 C 1.222656 -2.867188 1.289062 -3.039062 1.375 -3.1875 C 1.46875 -3.34375 1.582031 -3.460938 1.71875 -3.546875 C 1.863281 -3.640625 2.03125 -3.6875 2.21875 -3.6875 C 2.59375 -3.6875 2.878906 -3.539062 3.078125 -3.25 C 3.285156 -2.96875 3.390625 -2.578125 3.390625 -2.078125 Z M 1.109375 -2.078125 "/></g></g></g><g fill="#000000" fill-opacity="1"><g transform="translate(41.477856, 112.222584)"><g><path d="M 2.625 -1.90625 C 2.582031 -1.894531 2.523438 -1.882812 2.453125 -1.875 C 2.390625 -1.863281 2.320312 -1.847656 2.25 -1.828125 C 2.175781 -1.816406 2.101562 -1.804688 2.03125 -1.796875 C 1.957031 -1.785156 1.890625 -1.78125 1.828125 -1.78125 C 1.628906 -1.78125 1.476562 -1.804688 1.375 -1.859375 C 1.269531 -1.910156 1.191406 -1.96875 1.140625 -2.03125 C 1.085938 -2.101562 1.054688 -2.175781 1.046875 -2.25 C 1.046875 -2.320312 1.046875 -2.382812 1.046875 -2.4375 L 1.046875 -3.875 L 0.390625 -3.875 L 0.390625 -2.4375 C 0.390625 -2.375 0.394531 -2.285156 0.40625 -2.171875 C 0.414062 -2.066406 0.453125 -1.957031 0.515625 -1.84375 C 0.578125 -1.738281 0.675781 -1.644531 0.8125 -1.5625 C 0.957031 -1.488281 1.160156 -1.453125 1.421875 -1.453125 C 1.585938 -1.453125 1.773438 -1.46875 1.984375 -1.5 C 2.203125 -1.53125 2.414062 -1.578125 2.625 -1.640625 L 2.625 0 L 3.28125 0 L 3.28125 -3.875 L 2.625 -3.875 Z M 2.625 -1.90625 "/></g></g></g><g fill="#000000" fill-opacity="1"><g transform="translate(45.381041, 112.222584)"><g><path d="M 1.28125 -0.453125 L 1.28125 -3.875 L 0.625 -3.875 L 0.625 0 L 1.390625 0 L 3.375 -3.390625 L 3.375 0 L 4.03125 0 L 4.03125 -3.875 L 3.25 -3.875 Z M 1.28125 -0.453125 "/></g></g></g><g fill="#000000" fill-opacity="1"><g transform="translate(50.027688, 112.222584)"><g/></g></g><g fill="#000000" fill-opacity="1"><g transform="translate(52.738229, 112.222584)"><g><path d="M 1.28125 -0.453125 L 1.28125 -3.875 L 0.625 -3.875 L 0.625 0 L 1.390625 0 L 3.375 -3.390625 L 3.375 0 L 4.03125 0 L 4.03125 -3.875 L 3.25 -3.875 Z M 1.28125 -0.453125 "/></g></g></g><g fill="#000000" fill-opacity="1"><g transform="translate(57.384876, 112.222584)"><g/></g></g><g fill="#000000" fill-opacity="1"><g transform="translate(60.095416, 112.222584)"><g><path d="M 4.03125 -0.3125 L 2.546875 -3.875 L 2.078125 -3.875 L 0.640625 -0.3125 L 0.078125 -0.3125 L 0.078125 0.8125 L 0.625 0.8125 L 0.625 0 L 4.03125 0 L 4.03125 0.8125 L 4.578125 0.8125 L 4.578125 -0.3125 Z M 2.140625 -3.109375 L 2.1875 -3.109375 L 3.34375 -0.3125 L 1 -0.3125 Z M 2.140625 -3.109375 "/></g></g></g><g fill="#000000" fill-opacity="1"><g transform="translate(64.742064, 112.222584)"><g><path d="M 4.0625 -1.765625 L 4.0625 -1.9375 C 4.0625 -2.28125 4.007812 -2.578125 3.90625 -2.828125 C 3.8125 -3.078125 3.679688 -3.285156 3.515625 -3.453125 C 3.347656 -3.617188 3.148438 -3.742188 2.921875 -3.828125 C 2.703125 -3.910156 2.46875 -3.953125 2.21875 -3.953125 C 1.957031 -3.953125 1.710938 -3.90625 1.484375 -3.8125 C 1.265625 -3.726562 1.070312 -3.597656 0.90625 -3.421875 C 0.75 -3.242188 0.625 -3.03125 0.53125 -2.78125 C 0.4375 -2.539062 0.390625 -2.265625 0.390625 -1.953125 C 0.390625 -1.703125 0.425781 -1.453125 0.5 -1.203125 C 0.582031 -0.960938 0.703125 -0.742188 0.859375 -0.546875 C 1.023438 -0.347656 1.234375 -0.191406 1.484375 -0.078125 C 1.742188 0.0351562 2.039062 0.09375 2.375 0.09375 C 2.707031 0.09375 3.015625 0.0351562 3.296875 -0.078125 C 3.578125 -0.191406 3.816406 -0.359375 4.015625 -0.578125 L 3.78125 -0.828125 C 3.664062 -0.734375 3.5625 -0.644531 3.46875 -0.5625 C 3.375 -0.488281 3.273438 -0.425781 3.171875 -0.375 C 3.078125 -0.320312 2.976562 -0.28125 2.875 -0.25 C 2.769531 -0.226562 2.648438 -0.21875 2.515625 -0.21875 C 2.367188 -0.21875 2.210938 -0.238281 2.046875 -0.28125 C 1.890625 -0.320312 1.738281 -0.398438 1.59375 -0.515625 C 1.457031 -0.628906 1.34375 -0.785156 1.25 -0.984375 C 1.15625 -1.191406 1.109375 -1.453125 1.109375 -1.765625 Z M 1.109375 -2.078125 C 1.109375 -2.285156 1.128906 -2.484375 1.171875 -2.671875 C 1.222656 -2.867188 1.289062 -3.039062 1.375 -3.1875 C 1.46875 -3.34375 1.582031 -3.460938 1.71875 -3.546875 C 1.863281 -3.640625 2.03125 -3.6875 2.21875 -3.6875 C 2.59375 -3.6875 2.878906 -3.539062 3.078125 -3.25 C 3.285156 -2.96875 3.390625 -2.578125 3.390625 -2.078125 Z M 1.109375 -2.078125 "/></g></g></g><g fill="#000000" fill-opacity="1"><g transform="translate(69.187351, 112.222584)"><g><path d="M 1.28125 -1.875 L 1.28125 -3.875 L 0.625 -3.875 L 0.625 0 L 1.28125 0 L 1.28125 -1.359375 L 1.703125 -1.8125 L 2.671875 -0.546875 C 2.734375 -0.472656 2.796875 -0.394531 2.859375 -0.3125 C 2.921875 -0.238281 2.988281 -0.171875 3.0625 -0.109375 C 3.144531 -0.046875 3.234375 0 3.328125 0.03125 C 3.421875 0.0703125 3.519531 0.09375 3.625 0.09375 C 3.71875 0.09375 3.804688 0.0820312 3.890625 0.0625 C 3.972656 0.0390625 4.050781 0.0195312 4.125 0 L 4.125 -0.3125 L 3.90625 -0.3125 C 3.84375 -0.3125 3.773438 -0.328125 3.703125 -0.359375 C 3.640625 -0.398438 3.570312 -0.445312 3.5 -0.5 C 3.4375 -0.5625 3.367188 -0.628906 3.296875 -0.703125 C 3.234375 -0.773438 3.175781 -0.84375 3.125 -0.90625 L 2.109375 -2.234375 L 3.6875 -3.875 L 3.203125 -3.875 Z M 1.28125 -1.875 "/></g></g></g><g fill="#000000" fill-opacity="1"><g transform="translate(73.462267, 112.222584)"><g><path d="M 4.40625 -1.9375 C 4.40625 -1.664062 4.359375 -1.40625 4.265625 -1.15625 C 4.171875 -0.914062 4.035156 -0.703125 3.859375 -0.515625 C 3.691406 -0.328125 3.484375 -0.175781 3.234375 -0.0625 C 2.992188 0.0390625 2.71875 0.09375 2.40625 0.09375 C 2.09375 0.09375 1.8125 0.0390625 1.5625 -0.0625 C 1.3125 -0.175781 1.097656 -0.328125 0.921875 -0.515625 C 0.753906 -0.703125 0.625 -0.914062 0.53125 -1.15625 C 0.4375 -1.40625 0.390625 -1.664062 0.390625 -1.9375 C 0.390625 -2.195312 0.4375 -2.445312 0.53125 -2.6875 C 0.625 -2.9375 0.753906 -3.15625 0.921875 -3.34375 C 1.097656 -3.53125 1.3125 -3.675781 1.5625 -3.78125 C 1.8125 -3.894531 2.09375 -3.953125 2.40625 -3.953125 C 2.71875 -3.953125 2.992188 -3.894531 3.234375 -3.78125 C 3.484375 -3.675781 3.691406 -3.53125 3.859375 -3.34375 C 4.035156 -3.15625 4.171875 -2.9375 4.265625 -2.6875 C 4.359375 -2.445312 4.40625 -2.195312 4.40625 -1.9375 Z M 3.671875 -1.9375 C 3.671875 -2.289062 3.628906 -2.578125 3.546875 -2.796875 C 3.472656 -3.023438 3.375 -3.203125 3.25 -3.328125 C 3.125 -3.453125 2.984375 -3.535156 2.828125 -3.578125 C 2.679688 -3.628906 2.539062 -3.65625 2.40625 -3.65625 C 2.257812 -3.65625 2.113281 -3.628906 1.96875 -3.578125 C 1.820312 -3.535156 1.679688 -3.453125 1.546875 -3.328125 C 1.421875 -3.203125 1.316406 -3.023438 1.234375 -2.796875 C 1.160156 -2.578125 1.125 -2.289062 1.125 -1.9375 C 1.125 -1.570312 1.160156 -1.273438 1.234375 -1.046875 C 1.316406 -0.828125 1.421875 -0.65625 1.546875 -0.53125 C 1.679688 -0.40625 1.820312 -0.320312 1.96875 -0.28125 C 2.113281 -0.238281 2.257812 -0.21875 2.40625 -0.21875 C 2.539062 -0.21875 2.679688 -0.238281 2.828125 -0.28125 C 2.984375 -0.320312 3.125 -0.40625 3.25 -0.53125 C 3.375 -0.65625 3.472656 -0.828125 3.546875 -1.046875 C 3.628906 -1.273438 3.671875 -1.570312 3.671875 -1.9375 Z M 3.671875 -1.9375 "/></g></g></g><g fill="#000000" fill-opacity="1"><g transform="translate(78.248305, 112.222584)"><g><path d="M 0.625 1.9375 L 1.28125 1.9375 L 1.28125 -0.640625 L 1.3125 -0.640625 C 1.363281 -0.503906 1.429688 -0.390625 1.515625 -0.296875 C 1.597656 -0.203125 1.691406 -0.125 1.796875 -0.0625 C 1.910156 -0.0078125 2.023438 0.0234375 2.140625 0.046875 C 2.265625 0.078125 2.390625 0.09375 2.515625 0.09375 C 2.773438 0.09375 3.015625 0.046875 3.234375 -0.046875 C 3.453125 -0.140625 3.640625 -0.273438 3.796875 -0.453125 C 3.953125 -0.628906 4.070312 -0.84375 4.15625 -1.09375 C 4.25 -1.34375 4.296875 -1.625 4.296875 -1.9375 C 4.296875 -2.238281 4.25 -2.515625 4.15625 -2.765625 C 4.070312 -3.015625 3.953125 -3.226562 3.796875 -3.40625 C 3.640625 -3.582031 3.453125 -3.71875 3.234375 -3.8125 C 3.015625 -3.90625 2.773438 -3.953125 2.515625 -3.953125 C 1.898438 -3.953125 1.5 -3.71875 1.3125 -3.25 L 1.28125 -3.25 L 1.28125 -3.875 L 0.625 -3.875 Z M 1.28125 -2.328125 C 1.28125 -2.492188 1.304688 -2.648438 1.359375 -2.796875 C 1.410156 -2.953125 1.484375 -3.085938 1.578125 -3.203125 C 1.679688 -3.316406 1.796875 -3.40625 1.921875 -3.46875 C 2.054688 -3.53125 2.203125 -3.5625 2.359375 -3.5625 C 2.515625 -3.5625 2.664062 -3.53125 2.8125 -3.46875 C 2.957031 -3.414062 3.082031 -3.320312 3.1875 -3.1875 C 3.300781 -3.0625 3.390625 -2.894531 3.453125 -2.6875 C 3.523438 -2.476562 3.5625 -2.226562 3.5625 -1.9375 C 3.5625 -1.644531 3.523438 -1.394531 3.453125 -1.1875 C 3.390625 -0.988281 3.300781 -0.820312 3.1875 -0.6875 C 3.082031 -0.550781 2.957031 -0.453125 2.8125 -0.390625 C 2.664062 -0.335938 2.515625 -0.3125 2.359375 -0.3125 C 2.210938 -0.3125 2.070312 -0.335938 1.9375 -0.390625 C 1.8125 -0.453125 1.695312 -0.539062 1.59375 -0.65625 C 1.5 -0.78125 1.421875 -0.921875 1.359375 -1.078125 C 1.304688 -1.242188 1.28125 -1.4375 1.28125 -1.65625 Z M 1.28125 -2.328125 "/></g></g></g><g fill="#000000" fill-opacity="1"><g transform="translate(82.925923, 112.222584)"><g/></g></g><g fill="#000000" fill-opacity="1"><g transform="translate(85.636463, 112.222584)"><g><path d="M 2.5625 -0.3125 C 2.375 -0.3125 2.191406 -0.335938 2.015625 -0.390625 C 1.847656 -0.453125 1.695312 -0.546875 1.5625 -0.671875 C 1.425781 -0.796875 1.316406 -0.960938 1.234375 -1.171875 C 1.160156 -1.378906 1.125 -1.632812 1.125 -1.9375 C 1.125 -2.257812 1.164062 -2.53125 1.25 -2.75 C 1.34375 -2.96875 1.453125 -3.140625 1.578125 -3.265625 C 1.710938 -3.398438 1.859375 -3.5 2.015625 -3.5625 C 2.179688 -3.625 2.335938 -3.65625 2.484375 -3.65625 C 2.722656 -3.65625 2.925781 -3.59375 3.09375 -3.46875 C 3.269531 -3.34375 3.390625 -3.1875 3.453125 -3 L 3.984375 -3 C 3.929688 -3.1875 3.847656 -3.34375 3.734375 -3.46875 C 3.617188 -3.59375 3.488281 -3.691406 3.34375 -3.765625 C 3.195312 -3.835938 3.039062 -3.882812 2.875 -3.90625 C 2.707031 -3.9375 2.546875 -3.953125 2.390625 -3.953125 C 2.066406 -3.953125 1.78125 -3.898438 1.53125 -3.796875 C 1.28125 -3.691406 1.066406 -3.546875 0.890625 -3.359375 C 0.722656 -3.179688 0.597656 -2.972656 0.515625 -2.734375 C 0.429688 -2.492188 0.390625 -2.234375 0.390625 -1.953125 C 0.390625 -1.671875 0.4375 -1.40625 0.53125 -1.15625 C 0.625 -0.90625 0.753906 -0.6875 0.921875 -0.5 C 1.097656 -0.3125 1.304688 -0.164062 1.546875 -0.0625 C 1.796875 0.0390625 2.070312 0.09375 2.375 0.09375 C 2.71875 0.09375 3.015625 0.0351562 3.265625 -0.078125 C 3.523438 -0.191406 3.738281 -0.316406 3.90625 -0.453125 L 3.6875 -0.75 C 3.507812 -0.59375 3.332031 -0.476562 3.15625 -0.40625 C 2.976562 -0.34375 2.78125 -0.3125 2.5625 -0.3125 Z M 2.5625 -0.3125 "/></g></g></g><g fill="#000000" fill-opacity="1"><g transform="translate(89.849419, 112.222584)"><g/></g></g><g fill="#000000" fill-opacity="1"><g transform="translate(92.559959, 112.222584)"><g><path d="M 4.03125 -0.3125 L 2.546875 -3.875 L 2.078125 -3.875 L 0.640625 -0.3125 L 0.078125 -0.3125 L 0.078125 0.8125 L 0.625 0.8125 L 0.625 0 L 4.03125 0 L 4.03125 0.8125 L 4.578125 0.8125 L 4.578125 -0.3125 Z M 2.140625 -3.109375 L 2.1875 -3.109375 L 3.34375 -0.3125 L 1 -0.3125 Z M 2.140625 -3.109375 "/></g></g></g><g fill="#000000" fill-opacity="1"><g transform="translate(97.206606, 112.222584)"><g><path d="M 2.203125 -0.90625 L 0.859375 -3.875 L 0.15625 -3.875 L 1.890625 -0.046875 L 1.484375 0.96875 C 1.429688 1.082031 1.367188 1.175781 1.296875 1.25 C 1.222656 1.320312 1.132812 1.359375 1.03125 1.359375 C 0.945312 1.359375 0.859375 1.328125 0.765625 1.265625 C 0.679688 1.210938 0.617188 1.132812 0.578125 1.03125 L 0.234375 1.6875 C 0.328125 1.769531 0.429688 1.832031 0.546875 1.875 C 0.671875 1.914062 0.785156 1.9375 0.890625 1.9375 C 1.035156 1.9375 1.160156 1.898438 1.265625 1.828125 C 1.378906 1.753906 1.476562 1.660156 1.5625 1.546875 C 1.644531 1.429688 1.71875 1.300781 1.78125 1.15625 C 1.84375 1.019531 1.898438 0.878906 1.953125 0.734375 L 3.828125 -3.875 L 3.453125 -3.875 L 2.234375 -0.90625 Z M 2.203125 -0.90625 "/></g></g></g><g fill="#000000" fill-opacity="1"><g transform="translate(101.187231, 112.222584)"><g><path d="M 0.625 0 L 5.953125 0 L 5.953125 -3.875 L 5.28125 -3.875 L 5.28125 -0.3125 L 3.609375 -0.3125 L 3.609375 -3.875 L 2.953125 -3.875 L 2.953125 -0.3125 L 1.28125 -0.3125 L 1.28125 -3.875 L 0.625 -3.875 Z M 0.625 0 "/></g></g></g><g fill="#000000" fill-opacity="1"><g transform="translate(107.754486, 112.222584)"><g><path d="M 4.40625 -1.9375 C 4.40625 -1.664062 4.359375 -1.40625 4.265625 -1.15625 C 4.171875 -0.914062 4.035156 -0.703125 3.859375 -0.515625 C 3.691406 -0.328125 3.484375 -0.175781 3.234375 -0.0625 C 2.992188 0.0390625 2.71875 0.09375 2.40625 0.09375 C 2.09375 0.09375 1.8125 0.0390625 1.5625 -0.0625 C 1.3125 -0.175781 1.097656 -0.328125 0.921875 -0.515625 C 0.753906 -0.703125 0.625 -0.914062 0.53125 -1.15625 C 0.4375 -1.40625 0.390625 -1.664062 0.390625 -1.9375 C 0.390625 -2.195312 0.4375 -2.445312 0.53125 -2.6875 C 0.625 -2.9375 0.753906 -3.15625 0.921875 -3.34375 C 1.097656 -3.53125 1.3125 -3.675781 1.5625 -3.78125 C 1.8125 -3.894531 2.09375 -3.953125 2.40625 -3.953125 C 2.71875 -3.953125 2.992188 -3.894531 3.234375 -3.78125 C 3.484375 -3.675781 3.691406 -3.53125 3.859375 -3.34375 C 4.035156 -3.15625 4.171875 -2.9375 4.265625 -2.6875 C 4.359375 -2.445312 4.40625 -2.195312 4.40625 -1.9375 Z M 3.671875 -1.9375 C 3.671875 -2.289062 3.628906 -2.578125 3.546875 -2.796875 C 3.472656 -3.023438 3.375 -3.203125 3.25 -3.328125 C 3.125 -3.453125 2.984375 -3.535156 2.828125 -3.578125 C 2.679688 -3.628906 2.539062 -3.65625 2.40625 -3.65625 C 2.257812 -3.65625 2.113281 -3.628906 1.96875 -3.578125 C 1.820312 -3.535156 1.679688 -3.453125 1.546875 -3.328125 C 1.421875 -3.203125 1.316406 -3.023438 1.234375 -2.796875 C 1.160156 -2.578125 1.125 -2.289062 1.125 -1.9375 C 1.125 -1.570312 1.160156 -1.273438 1.234375 -1.046875 C 1.316406 -0.828125 1.421875 -0.65625 1.546875 -0.53125 C 1.679688 -0.40625 1.820312 -0.320312 1.96875 -0.28125 C 2.113281 -0.238281 2.257812 -0.21875 2.40625 -0.21875 C 2.539062 -0.21875 2.679688 -0.238281 2.828125 -0.28125 C 2.984375 -0.320312 3.125 -0.40625 3.25 -0.53125 C 3.375 -0.65625 3.472656 -0.828125 3.546875 -1.046875 C 3.628906 -1.273438 3.671875 -1.570312 3.671875 -1.9375 Z M 3.671875 -1.9375 "/></g></g></g><g fill="#000000" fill-opacity="1"><g transform="translate(112.540524, 112.222584)"><g><path d="M 1.28125 -0.453125 L 1.28125 -3.875 L 0.625 -3.875 L 0.625 0 L 1.390625 0 L 3.375 -3.390625 L 3.375 0 L 4.03125 0 L 4.03125 -3.875 L 3.25 -3.875 Z M 2.328125 -4.578125 C 2.421875 -4.578125 2.539062 -4.578125 2.6875 -4.578125 C 2.84375 -4.585938 2.992188 -4.613281 3.140625 -4.65625 C 3.285156 -4.707031 3.410156 -4.785156 3.515625 -4.890625 C 3.617188 -4.992188 3.671875 -5.140625 3.671875 -5.328125 L 3.671875 -5.421875 L 2.921875 -5.421875 C 2.921875 -5.398438 2.921875 -5.375 2.921875 -5.34375 C 2.929688 -5.320312 2.9375 -5.300781 2.9375 -5.28125 C 2.9375 -5.164062 2.910156 -5.078125 2.859375 -5.015625 C 2.816406 -4.953125 2.765625 -4.90625 2.703125 -4.875 C 2.640625 -4.851562 2.570312 -4.835938 2.5 -4.828125 C 2.4375 -4.828125 2.378906 -4.828125 2.328125 -4.828125 C 2.285156 -4.828125 2.226562 -4.828125 2.15625 -4.828125 C 2.082031 -4.835938 2.015625 -4.851562 1.953125 -4.875 C 1.890625 -4.90625 1.832031 -4.953125 1.78125 -5.015625 C 1.738281 -5.078125 1.71875 -5.164062 1.71875 -5.28125 C 1.71875 -5.300781 1.71875 -5.320312 1.71875 -5.34375 C 1.726562 -5.375 1.734375 -5.398438 1.734375 -5.421875 L 1 -5.421875 L 1 -5.328125 C 1 -5.140625 1.050781 -4.992188 1.15625 -4.890625 C 1.257812 -4.785156 1.378906 -4.707031 1.515625 -4.65625 C 1.660156 -4.613281 1.804688 -4.585938 1.953125 -4.578125 C 2.109375 -4.578125 2.234375 -4.578125 2.328125 -4.578125 Z M 2.328125 -4.578125 "/></g></g></g></svg>